<svg fill="#F22F46" role="img" viewBox="0 0 24 24" xmlns="http://www.w3.org/2000/svg"><title>Twilio</title><path d="M12 0C5.4 0 0 5.4 0 12s5.4 12 12 12 12-5.4 12-12S18.66 0 12 0zm0 20.55c-4.71 0-8.55-3.84-8.55-8.55S7.29 3.45 12 3.45s8.55 3.84 8.55 8.55-3.84 8.55-8.55 8.55zm5.16-10.35c0 1.41-1.14 2.55-2.55 2.55s-2.55-1.14-2.55-2.55 1.14-2.55 2.55-2.55 2.55 1.14 2.55 2.55zm0 3.6c0 1.41-1.14 2.55-2.55 2.55s-2.55-1.14-2.55-2.55 1.14-2.55 2.55-2.55 2.55 1.14 2.55 2.55zm-5.61-3.6c0 1.41-1.14 2.55-2.55 2.55s-2.55-1.14-2.55-2.55 1.14-2.55 2.55-2.55 2.55 1.14 2.55 2.55zm0 3.6c0 1.41-1.14 2.55-2.55 2.55S6.45 15.21 6.45 13.8s1.14-2.55 2.55-2.55 2.55 1.14 2.55 2.55z"/></svg>
